<svg id="close_black_24dp_1_" data-name="close_black_24dp (1)" xmlns="http://www.w3.org/2000/svg" width="16" height="16" viewBox="0 0 16 16">
  <path id="Caminho_6567" data-name="Caminho 6567" d="M0,0H16V16H0Z" fill="none"/>
  <path id="Caminho_6568" data-name="Caminho 6568" d="M14,5.609a.664.664,0,0,0-.94,0L9.8,8.863,6.543,5.6a.665.665,0,0,0-.94.94L8.863,9.8,5.6,13.063a.665.665,0,0,0,.94.94l3.26-3.26L13.063,14a.665.665,0,0,0,.94-.94L10.743,9.8,14,6.543A.668.668,0,0,0,14,5.609Z" transform="translate(-1.802 -1.802)" fill="#271718"/>
</svg>
